<svg xmlns="http://www.w3.org/2000/svg" width="847" height="671.34" viewBox="0 0 847 671.34"><defs><style>.a{fill:#ffb8b8;}.b{fill:#2f2e41;}.c{fill:#3f3d56;}.d{opacity:0.2;}.e{fill:#6c63ff;}.f{fill:#414141;}.g{fill:#393838;}.h{fill:#474747;}.i{fill:#fff700;}.j{fill:#bfbfbf;}.k{fill:#d8d8d8;}</style></defs><g transform="translate(0 -7.918)"><path class="a" d="M307.693,660.015l8.848,2.65,14.434-32.87-13.06-3.911Z" transform="translate(-14.7 1.318)"/><path class="b" d="M462.368,767.416l17.427,5.22h0a11.594,11.594,0,0,1,7.779,14.432l-.108.361-28.532-8.546Z" transform="translate(-170.599 -109.649)"/><path class="a" d="M390.774,667.2l8.673-3.18-8.137-34.964-12.8,4.693Z" transform="translate(-18.021 1.363)"/><path class="b" d="M543.4,776.165l17.08-6.262h0a11.593,11.593,0,0,1,14.875,6.894l.13.354L547.518,787.4Z" transform="translate(-174.751 -109.623)"/><path class="b" d="M322.533,600.868,307.464,650.6l18.082,5.274,17.33-45.961Z" transform="translate(-14.956 0.962)"/><path class="b" d="M369.121,612.1l13.563,46.714,18.836-9.041-13.562-43.7Z" transform="translate(-17.875 1.036)"/><path class="c" d="M518.769,734.206a206.894,206.894,0,0,1-35.963-3.317l-.3-.061V719.336l-6.887-.765,5.375-19.2c-2.505-29.576,1.055-67.031,2.207-77.812.264-2.528.438-3.947.438-3.947l6.044-51.372,10.112-9.334,4.594,2.99,8.522,8.521c9.905,24.377,17.765,47.326,17.815,48.8l33.218,106.449-.224.158C552.182,731.971,534.6,734.206,518.769,734.206Z" transform="translate(-172.857 -112.65)"/><path class="d" d="M337.741,477.181l-2.323,14.5,15.724,6.486Z" transform="translate(-15.847 -0.802)"/><path class="b" d="M524.679,557.389H488.324a2.824,2.824,0,0,1-2.821-2.821V538.9a21,21,0,1,1,42,0v15.67A2.824,2.824,0,0,1,524.679,557.389Z" transform="translate(-172.187 -113.206)"/><circle class="a" cx="15.395" cy="15.395" r="15.395" transform="translate(322.609 412.449)"/><path class="b" d="M532.318,540.386h-22.23l-.228-3.191-1.14,3.191H505.3l-.452-6.326-2.259,6.326h-6.623v-.313a16.629,16.629,0,0,1,16.61-16.61h3.134a16.629,16.629,0,0,1,16.611,16.61Z" transform="translate(-172.561 -113.126)"/><path class="b" d="M509.946,560.137a2.87,2.87,0,0,1-.5-.044l-16.278-2.872v-26.9h17.919l-.444.517c-6.172,7.2-1.522,18.871,1.8,25.188a2.779,2.779,0,0,1-.221,2.951A2.809,2.809,0,0,1,509.946,560.137Z" transform="translate(-172.021 -113.029)"/><path class="e" d="M538.2,624.1h-8.922a1.148,1.148,0,0,1-1.146-1.04l-1.786-18.306h14.787l-1.786,18.306a1.147,1.147,0,0,1-1.146,1.04Z" transform="translate(-173.473 -111.967)"/><path class="b" d="M541.119,607.1H526.38a1.153,1.153,0,0,1-1.151-1.152v-2.764a1.153,1.153,0,0,1,1.151-1.151h14.74a1.153,1.153,0,0,1,1.152,1.151v2.764A1.153,1.153,0,0,1,541.119,607.1Z" transform="translate(-173.478 -112.006)"/><path class="d" d="M483.892,616.064h0a28.278,28.278,0,0,0,33.945,6.861l3.351-1.658Z" transform="translate(-171.995 -111.806)"/><path class="a" d="M537.151,612.627a7.065,7.065,0,0,0-10.829.327l-15.544-4.364-4.956,8.8,22.038,5.854a7.1,7.1,0,0,0,9.29-10.617Z" transform="translate(-172.96 -111.913)"/><path class="c" d="M500.586,622.989c-7.39,0-17.39-4.333-29.26-12.725a5.813,5.813,0,0,1-2.448-3.984c-.876-5.547,4.535-13.046,5.066-13.765l5.688-15.62c.066-.254,1.9-7.012,6.5-9.417a7.544,7.544,0,0,1,6.3-.269c8.766,3.192,1.921,27.839.981,31.072l11.613,5.466,7.375,4.7,10.1,1.057-2.742,12.69-15.339.345A15.649,15.649,0,0,1,500.586,622.989Z" transform="translate(-171.64 -112.511)"/><path class="f" d="M1046.481,509.461a99.985,99.985,0,1,0-191.914,39.362c-.1-.109-.2-.214-.3-.324a100.066,100.066,0,0,0,18.21,28.179l.069.074c.614.669,1.232,1.335,1.864,1.988a99.681,99.681,0,0,0,70.521,30.685l-3.378,183.508h10.438l-2.113-121.117,15.1-7.949-2.3-4.375-12.892,6.788-.992-56.863a99.983,99.983,0,0,0,97.687-99.956Z" transform="translate(-199.816 -114.751)"/><path class="g" d="M754.381,461.654a117.173,117.173,0,1,0-224.911,46.13c-.115-.127-.233-.251-.347-.379a117.275,117.275,0,0,0,21.341,33.023l.081.087c.72.784,1.444,1.565,2.184,2.33a116.817,116.817,0,0,0,82.644,35.96L631.413,793.86h12.232L641.17,651.921l17.695-9.316-2.7-5.127-15.109,7.954-1.162-66.638a117.172,117.172,0,0,0,114.487-117.14Z" transform="translate(-180.545 -115.677)"/><path class="h" d="M423.008,416.688a133.341,133.341,0,1,0-255.945,52.494c-.13-.145-.265-.286-.395-.431a133.459,133.459,0,0,0,24.285,37.58l.092.1c.819.893,1.643,1.781,2.486,2.651A132.937,132.937,0,0,0,287.578,550l-4.506,244.73h13.92l-2.817-161.524,20.136-10.6-3.072-5.835-17.193,9.052-1.323-75.833A133.339,133.339,0,0,0,423.008,416.688Z" transform="translate(-155.995 -116.549)"/><circle class="i" cx="174.769" cy="174.769" r="174.769" transform="translate(74.291 7.918)"/><path class="d" d="M274.952,183.922a174.782,174.782,0,0,0,291.216,184.97,174.784,174.784,0,1,1-291.216-184.97Z" transform="translate(-154.936 -117.967)"/><path class="j" d="M246.16,187.616h.481l8.643,495.5H237.038Z" transform="translate(-11.241 -4.93)"/><rect class="j" width="32.649" height="8.642" transform="translate(233.083 460.144) rotate(-27.766)"/><path class="c" d="M665.115,783.141s.631-13.212,13.557-11.677" transform="translate(-179.977 -109.593)"/><circle class="i" cx="6.47" cy="6.47" r="6.47" transform="translate(475.65 648.035)"/><rect class="c" width="1.826" height="12.783" transform="translate(481.122 665.4)"/><path class="c" d="M223.083,781.34s.631-13.213,13.557-11.677" transform="translate(-155.044 -109.618)"/><circle class="i" cx="6.47" cy="6.47" r="6.47" transform="translate(57.917 646.21)"/><rect class="c" width="1.826" height="12.783" transform="translate(63.334 663.574)"/><path class="c" d="M327.514,782.241s.63-13.213,13.557-11.677" transform="translate(-164.077 -109.605)"/><circle class="i" cx="6.47" cy="6.47" r="6.47" transform="translate(163.837 647.123)"/><rect class="c" width="1.826" height="12.783" transform="translate(169.254 664.486)"/><path class="c" d="M605.516,194.843l12.977-10.379c-10.082-1.112-14.224,4.386-15.919,8.738-7.876-3.27-16.45,1.016-16.45,1.016l25.965,9.426A19.647,19.647,0,0,0,605.516,194.843Z" transform="translate(-176.828 -117.961)"/><path class="k" d="M800.1,299.084,813.077,288.7c-10.082-1.112-14.224,4.386-15.919,8.738-7.876-3.27-16.45,1.016-16.45,1.016l25.965,9.426A19.651,19.651,0,0,0,800.1,299.084Z" transform="translate(-186.251 -116.475)"/><path class="k" d="M590.228,388.037,603.2,377.658c-10.081-1.112-14.224,4.386-15.919,8.738-7.876-3.27-16.45,1.016-16.45,1.016l25.965,9.426A19.647,19.647,0,0,0,590.228,388.037Z" transform="translate(-176.088 -115.207)"/><path class="c" d="M839.655,787.869s.63-13.213,13.557-11.677" transform="translate(-188.197 -109.525)"/><path class="c" d="M719.919,787.869s.631-13.213,13.557-11.677" transform="translate(-182.558 -109.525)"/><path class="c" d="M283.289,787.869s.631-13.213,13.557-11.677" transform="translate(-154.185 -109.525)"/><path class="c" d="M893.671,787.869s.63-13.213,13.557-11.677" transform="translate(-199.143 -109.525)"/><path class="c" d="M868.464,787.869s.631-13.213,13.557-11.677" transform="translate(-199.503 -109.525)"/><path class="c" d="M816.656,787.869s-.631-13.213-13.557-11.677" transform="translate(-186.475 -109.525)"/><path class="c" d="M609.594,787.869s-.631-13.213-13.557-11.677" transform="translate(-176.723 -109.525)"/><path class="c" d="M437.643,787.869s-.631-13.213-13.557-11.677" transform="translate(-168.625 -109.525)"/><path class="c" d="M254.888,787.869s-.631-13.213-13.557-11.677" transform="translate(-154.783 -109.525)"/><path class="c" d="M948.094,787.869s-.63-13.213-13.557-11.677" transform="translate(-198.561 -109.525)"/><path class="c" d="M870.672,788.77s-.631-13.212-13.557-11.677" transform="translate(-189.019 -109.512)"/><rect class="c" width="847" height="2.029" transform="translate(0 676.617)"/></g></svg>